<svg xmlns="http://www.w3.org/2000/svg" width="480pt" height="290pt" viewBox="0 0 480 290" version="1.1" xmlns:xlink="http://www.w3.org/1999/xlink">
  <g id="surface2" transform="matrix(1.3611966543277947,0,0,1.3611966543277947,-86.32600038434293,-38.286845358746234)" data-tpl_matrix="1,0,0,1,0,0">
    <path style="stroke:none;fill-rule:evenodd;fill:rgb(99.215686%,72.549020%,14.117647%);fill-opacity:1" d="M 251.699219 104.949219 C 249.667969 104.917969 247.816406 104.417969 246.148438 103.449219 C 244.484375 102.484375 243.167969 101.167969 242.199219 99.5 C 241.199219 97.832031 240.699219 95.964844 240.699219 93.898438 C 240.699219 91.867188 241.199219 90.015625 242.199219 88.351562 C 243.167969 86.683594 244.484375 85.367188 246.148438 84.398438 C 247.816406 83.398438 249.667969 82.898438 251.699219 82.898438 C 253.765625 82.898438 255.632812 83.398438 257.300781 84.398438 C 258.964844 85.367188 260.285156 86.683594 261.25 88.351562 C 262.25 90.015625 262.75 91.867188 262.75 93.898438 C 262.714844 95.964844 262.214844 97.832031 261.25 99.5 C 260.285156 101.167969 258.964844 102.484375 257.300781 103.449219 C 255.632812 104.449219 253.765625 104.949219 251.699219 104.949219 M 275.199219 107.5 L 265.949219 98.199219 C 266.050781 97.898438 266.132812 97.617188 266.199219 97.351562 L 278.851562 93.949219 L 266.199219 90.550781 C 266.132812 90.25 266.050781 89.949219 265.949219 89.648438 L 275.199219 80.398438 L 262.550781 83.800781 C 262.316406 83.566406 262.101562 83.351562 261.898438 83.148438 L 265.300781 70.449219 L 256 79.75 C 255.699219 79.648438 255.398438 79.566406 255.101562 79.5 L 251.75 66.800781 L 248.398438 79.5 C 248.066406 79.566406 247.734375 79.648438 247.398438 79.75 L 238.148438 70.449219 L 241.601562 83.101562 C 241.367188 83.332031 241.132812 83.566406 240.898438 83.800781 L 228.25 80.351562 L 237.550781 89.601562 C 237.449219 89.964844 237.367188 90.300781 237.300781 90.601562 L 224.601562 93.949219 L 237.300781 97.300781 C 237.367188 97.601562 237.449219 97.917969 237.550781 98.25 L 228.25 107.5 L 240.898438 104.050781 C 241.132812 104.316406 241.367188 104.550781 241.601562 104.75 L 238.148438 117.449219 L 247.398438 108.148438 C 247.734375 108.214844 248.050781 108.300781 248.351562 108.398438 L 251.75 121.050781 L 255.148438 108.398438 C 255.417969 108.332031 255.699219 108.25 256 108.148438 L 265.300781 117.398438 L 261.898438 104.75 C 262.101562 104.515625 262.316406 104.300781 262.550781 104.101562 L 275.199219 107.5"/>
    <path style="stroke:none;fill-rule:evenodd;fill:rgb(28.627451%,30.588235%,42.352941%);fill-opacity:1" d="M 286.800781 94.851562 C 287.5 95.75 288.132812 96.648438 288.699219 97.550781 L 290.25 97.550781 C 289.617188 96.648438 288.882812 95.75 288.050781 94.851562 L 286.800781 94.851562 M 282.898438 123.449219 L 288.5 123.449219 C 290.101562 121.148438 291.351562 118.898438 292.25 116.699219 L 288.148438 116.699219 C 286.816406 118.898438 285.066406 121.148438 282.898438 123.449219 M 270.75 133.550781 L 279.300781 133.550781 C 282.234375 130.882812 284.734375 128.265625 286.800781 125.699219 L 280.601562 125.699219 C 277.867188 128.265625 274.582031 130.882812 270.75 133.550781 M 248.75 146.699219 L 261.800781 146.699219 C 264.367188 145.066406 266.898438 143.316406 269.398438 141.449219 C 271.933594 139.582031 274.167969 137.851562 276.101562 136.25 L 266.648438 136.25 C 264.183594 137.851562 261.398438 139.566406 258.300781 141.398438 C 255.199219 143.265625 252.015625 145.035156 248.75 146.699219 M 292.851562 102.550781 C 292.382812 101.25 291.785156 99.984375 291.050781 98.75 L 289.351562 98.75 C 289.984375 99.984375 290.464844 101.25 290.800781 102.550781 L 292.851562 102.550781 M 311.25 112.851562 C 309.984375 109.648438 308.316406 106.785156 306.25 104.25 C 304.183594 101.683594 301.949219 99.417969 299.550781 97.449219 C 297.117188 95.484375 294.734375 93.800781 292.398438 92.398438 C 290.035156 91 287.933594 89.867188 286.101562 89 C 284.234375 88.101562 282.832031 87.449219 281.898438 87.050781 C 281.898438 87.050781 281.898438 87.050781 281.898438 87.050781 C 282.398438 92.882812 282 97.949219 280.699219 102.25 C 279.398438 106.582031 277.5 110.265625 275 113.300781 C 272.5 116.367188 269.699219 118.898438 266.601562 120.898438 C 266.601562 120.898438 266.617188 120.882812 266.648438 120.851562 C 266.617188 120.882812 266.582031 120.917969 266.550781 120.949219 C 263.882812 122.683594 261.199219 124.117188 258.5 125.25 C 255.800781 126.351562 253.285156 127.234375 250.949219 127.898438 C 249.015625 128.464844 246.765625 129.066406 244.199219 129.699219 C 241.632812 130.367188 238.933594 131.050781 236.101562 131.75 C 233.234375 132.417969 230.398438 133.082031 227.601562 133.75 C 224.800781 134.417969 222.183594 135.035156 219.75 135.601562 C 215.851562 136.535156 211.765625 137.464844 207.5 138.398438 C 203.234375 139.332031 199 140.234375 194.800781 141.101562 C 190.566406 141.964844 186.582031 142.765625 182.851562 143.5 C 179.082031 144.199219 175.765625 144.816406 172.898438 145.351562 C 170 145.851562 167.75 146.214844 166.148438 146.449219 L 200.949219 146.449219 C 204.617188 145.714844 208.433594 144.867188 212.398438 143.898438 C 216.398438 142.933594 220.464844 141.917969 224.601562 140.851562 C 231.332031 139.148438 236.964844 137.648438 241.5 136.351562 C 246 135.050781 249.714844 133.882812 252.648438 132.851562 C 255.582031 131.785156 258.050781 130.765625 260.050781 129.800781 C 262.050781 128.832031 263.882812 127.816406 265.550781 126.75 C 272.550781 122.484375 277.464844 117.101562 280.300781 110.601562 C 283.132812 104.132812 283.800781 96.617188 282.300781 88.050781 C 285.867188 89.75 289.285156 91.867188 292.550781 94.398438 C 295.816406 96.964844 298.765625 99.917969 301.398438 103.25 C 304 106.617188 306.101562 110.300781 307.699219 114.300781 C 308.898438 117.464844 309.398438 120.785156 309.199219 124.25 C 309.035156 127.714844 308.351562 131.300781 307.148438 135 C 305.984375 138.734375 304.484375 142.550781 302.648438 146.449219 L 309.449219 146.449219 C 314.582031 134.25 315.183594 123.050781 311.25 112.851562 M 289.101562 115.050781 L 292.851562 115.050781 C 293.382812 113.316406 293.714844 111.601562 293.851562 109.898438 L 290.898438 109.898438 C 290.566406 111.601562 289.964844 113.316406 289.101562 115.050781 M 293.351562 104.199219 C 293.683594 105.535156 293.867188 106.882812 293.898438 108.25 L 291.199219 108.25 C 291.332031 106.882812 291.300781 105.535156 291.101562 104.199219 L 293.351562 104.199219"/>
  </g>
  <g id="surface4">
  </g>
</svg>